<svg width="132" height="35" viewBox="0 0 132 35" fill="none" xmlns="http://www.w3.org/2000/svg">
<path d="M0 6.3954H7.35433V12.2454L11.5329 6.3954H19.5001L13.2322 14.669L19.7787 25.8955H11.5329L8.27362 19.7391L7.35433 20.8533V25.8955H0V6.3954Z" fill="#F97316"/>
<path d="M28.5494 26.3134C27.1751 26.3134 25.8751 26.1184 24.6494 25.7284C23.4422 25.3384 22.3836 24.7441 21.4736 23.9455C20.5636 23.1284 19.8393 22.0884 19.3008 20.8255C18.7808 19.5626 18.5208 18.049 18.5208 16.2847V15.7276C18.5208 14.0562 18.7808 12.6169 19.3008 11.4097C19.8393 10.184 20.5636 9.17185 21.4736 8.37327C22.3836 7.55612 23.4422 6.95255 24.6494 6.56254C25.8751 6.17254 27.1751 5.97754 28.5494 5.97754C29.9237 5.97754 31.2144 6.17254 32.4216 6.56254C33.6473 6.95255 34.7152 7.55612 35.6252 8.37327C36.5352 9.17185 37.2502 10.184 37.7702 11.4097C38.3087 12.6169 38.578 14.0562 38.578 15.7276V16.2847C38.578 18.0119 38.3087 19.5069 37.7702 20.7698C37.2502 22.0326 36.5352 23.0819 35.6252 23.9177C34.7152 24.7348 33.6473 25.3384 32.4216 25.7284C31.2144 26.1184 29.9237 26.3134 28.5494 26.3134ZM28.5494 20.3519C29.3294 20.3519 29.9423 20.0455 30.388 19.4326C30.8337 18.8012 31.0566 17.7519 31.0566 16.2847V15.7276C31.0566 14.3905 30.8337 13.4247 30.388 12.8304C29.9423 12.2361 29.3294 11.939 28.5494 11.939C27.7694 11.939 27.1565 12.2361 26.7108 12.8304C26.2651 13.4247 26.0422 14.3905 26.0422 15.7276V16.2847C26.0422 17.7519 26.2651 18.8012 26.7108 19.4326C27.1565 20.0455 27.7694 20.3519 28.5494 20.3519Z" fill="#F97316"/>
<path d="M39.4072 6.3954H45.3687L51.553 14.474V6.3954H58.3502V25.8955H52.3887L46.2044 17.8169V25.8955H39.4072V6.3954Z" fill="#F97316"/>
<path d="M59.7365 6.3954H68.5116C69.9787 6.3954 71.2973 6.59969 72.4673 7.00826C73.6559 7.39826 74.6681 7.98327 75.5038 8.76327C76.3395 9.54328 76.9802 10.5183 77.4259 11.6883C77.8902 12.8583 78.1224 14.2047 78.1224 15.7276V16.2847C78.1224 17.8448 77.8902 19.2283 77.4259 20.4355C76.9617 21.6241 76.2931 22.6269 75.4202 23.4441C74.5659 24.2427 73.5259 24.8555 72.3002 25.2827C71.093 25.6912 69.7373 25.8955 68.233 25.8955H59.7365V6.3954ZM68.233 19.9898C68.5859 19.9898 68.9016 19.9341 69.1802 19.8226C69.4773 19.7112 69.728 19.5162 69.9323 19.2376C70.1552 18.9591 70.3223 18.5783 70.4338 18.0955C70.5452 17.6126 70.6009 17.009 70.6009 16.2847V15.7276C70.6009 14.409 70.4059 13.5083 70.0159 13.0254C69.6259 12.5426 69.0316 12.3012 68.233 12.3012H67.0909V19.9898H68.233Z" fill="#F97316"/>
<path d="M79.0898 6.3954H86.4441V25.8955H79.0898V6.3954Z" fill="#F97316"/>
<path d="M96.1807 26.3134C93.3949 26.3134 91.2592 25.8212 89.7735 24.8369C88.2878 23.8341 87.4056 22.2369 87.127 20.0455H94.4814C94.5371 20.4355 94.6857 20.7233 94.9271 20.9091C95.1685 21.0948 95.5864 21.1876 96.1807 21.1876C96.8307 21.1876 97.2764 21.1226 97.5178 20.9926C97.7592 20.8441 97.88 20.6212 97.88 20.3241C97.88 20.1569 97.8335 20.0176 97.7407 19.9062C97.6478 19.7948 97.4621 19.6833 97.1835 19.5719C96.9235 19.4605 96.5428 19.3491 96.0414 19.2376C95.5585 19.1076 94.9085 18.959 94.0914 18.7919C93.1628 18.6062 92.3085 18.3648 91.5285 18.0676C90.7485 17.7519 90.0706 17.3433 89.4949 16.8419C88.9192 16.3405 88.4735 15.7276 88.1578 15.0033C87.842 14.2604 87.6842 13.3876 87.6842 12.3847C87.6842 11.3076 87.8885 10.3697 88.297 9.57113C88.7056 8.75398 89.2813 8.08541 90.0242 7.56541C90.7856 7.02683 91.6863 6.62754 92.7264 6.36754C93.7664 6.10754 94.9178 5.97754 96.1807 5.97754C98.8364 5.97754 100.87 6.51611 102.281 7.59326C103.693 8.67041 104.538 10.1283 104.816 11.9669H97.4621C97.425 11.7069 97.3042 11.5026 97.0999 11.354C96.9142 11.1869 96.6078 11.1033 96.1807 11.1033C95.4192 11.1033 95.0385 11.3911 95.0385 11.9669C95.0385 12.134 95.0849 12.2826 95.1778 12.4126C95.2892 12.5426 95.4657 12.6633 95.7071 12.7747C95.9485 12.8676 96.2735 12.9604 96.6821 13.0533C97.1092 13.1462 97.6385 13.2483 98.27 13.3597C99.0871 13.5083 99.9043 13.7126 100.721 13.9726C101.557 14.214 102.309 14.5669 102.978 15.0312C103.646 15.4955 104.185 16.099 104.594 16.8419C105.021 17.5662 105.234 18.4855 105.234 19.5998C105.234 20.7512 105.021 21.7541 104.594 22.6084C104.166 23.4441 103.554 24.1405 102.755 24.6977C101.975 25.2362 101.028 25.6355 99.9135 25.8955C98.7992 26.1741 97.555 26.3134 96.1807 26.3134Z" fill="#F97316"/>
<path d="M105.789 6.3954H113.144V13.0533H117.378V6.3954H124.732V25.8955H117.378V18.9591H113.144V25.8955H105.789V6.3954Z" fill="#F97316"/>
<path d="M127.784 4.51933L127.774 1.80553L129.149 1.80031C129.259 1.79989 129.379 1.8313 129.51 1.89455C129.64 1.95534 129.75 2.05053 129.842 2.18011C129.935 2.30724 129.983 2.46886 129.983 2.66498C129.984 2.86355 129.937 3.03288 129.842 3.17298C129.747 3.31063 129.631 3.41526 129.494 3.48687C129.359 3.55848 129.232 3.59451 129.112 3.59496L128.119 3.59873L128.117 3.15747L128.926 3.15439C129.007 3.15409 129.094 3.11331 129.187 3.03205C129.282 2.95079 129.329 2.82926 129.329 2.66746C129.328 2.50076 129.28 2.38818 129.184 2.3297C129.091 2.27122 129.008 2.24211 128.937 2.24238L128.371 2.24453L128.38 4.51706L127.784 4.51933ZM129.419 3.23342L130.101 4.51053L129.446 4.51302L128.779 3.23585L129.419 3.23342ZM128.82 6.1334C128.413 6.13495 128.031 6.0604 127.675 5.90975C127.319 5.75911 127.006 5.54947 126.735 5.28083C126.464 5.01219 126.252 4.70042 126.099 4.34554C125.946 3.99065 125.868 3.60973 125.867 3.20278C125.865 2.79584 125.94 2.41434 126.09 2.0583C126.241 1.70225 126.451 1.38889 126.719 1.1182C126.988 0.847514 127.3 0.635499 127.655 0.482157C128.009 0.328815 128.39 0.251372 128.797 0.249827C129.204 0.248282 129.586 0.322831 129.942 0.473474C130.298 0.624116 130.611 0.833758 130.882 1.1024C131.153 1.37104 131.365 1.6828 131.518 2.03769C131.671 2.39258 131.749 2.7735 131.75 3.18044C131.752 3.58739 131.677 3.96889 131.527 4.32493C131.376 4.68097 131.166 4.99434 130.898 5.26503C130.629 5.53571 130.317 5.74773 129.962 5.90107C129.608 6.05441 129.227 6.13186 128.82 6.1334ZM128.817 5.42737C129.229 5.42581 129.604 5.32387 129.941 5.12157C130.279 4.91926 130.547 4.64857 130.747 4.3095C130.947 3.97043 131.046 3.59498 131.044 3.18313C131.043 2.77127 130.941 2.39658 130.738 2.05904C130.536 1.72149 130.265 1.45285 129.926 1.25312C129.587 1.05338 129.212 0.954292 128.8 0.955855C128.388 0.957419 128.013 1.05935 127.676 1.26166C127.338 1.46397 127.07 1.73465 126.87 2.07372C126.67 2.41279 126.571 2.78825 126.573 3.2001C126.574 3.61195 126.676 3.98665 126.879 4.32419C127.081 4.66173 127.352 4.93037 127.691 5.13011C128.03 5.32985 128.405 5.42893 128.817 5.42737Z" fill="#F97316"/>
<path d="M0.164795 33.7427V27.3865H3.66462V33.7427H2.77789V28.0222H1.05152V33.7427H0.164795Z" fill="#F97316"/>
<path d="M4.42002 33.7427V27.3865H5.9973C6.37919 27.3865 6.68261 27.4572 6.90757 27.5984C7.13775 27.7344 7.30515 27.9332 7.40978 28.1948C7.51441 28.4564 7.56672 28.7729 7.56672 29.1443C7.56672 29.4791 7.50656 29.7694 7.38624 30.0153C7.27115 30.2612 7.09851 30.4521 6.86833 30.5882C6.63815 30.7189 6.35042 30.7843 6.00515 30.7843H5.30675V33.7427H4.42002ZM5.30675 30.1487H5.7148C5.97114 30.1487 6.17255 30.12 6.31903 30.0624C6.46551 30.0049 6.57014 29.9055 6.63292 29.7642C6.69569 29.6177 6.72708 29.4137 6.72708 29.1521C6.72708 28.8487 6.70354 28.6159 6.65646 28.4537C6.61461 28.2916 6.52306 28.1791 6.38181 28.1163C6.24056 28.0535 6.02084 28.0222 5.72265 28.0222H5.30675V30.1487Z" fill="#F97316"/>
<path d="M9.57927 33.8133C9.15029 33.8133 8.80763 33.7296 8.55129 33.5622C8.29495 33.3948 8.11186 33.1568 8.002 32.8481C7.89214 32.5343 7.83721 32.1681 7.83721 31.7495V29.3405C7.83721 28.922 7.89214 28.5636 8.002 28.2654C8.11709 27.962 8.30019 27.7318 8.55129 27.5749C8.80763 27.4127 9.15029 27.3316 9.57927 27.3316C10.0082 27.3316 10.3483 27.4127 10.5994 27.5749C10.8505 27.737 11.031 27.9672 11.1408 28.2654C11.2559 28.5636 11.3135 28.922 11.3135 29.3405V31.7574C11.3135 32.1707 11.2559 32.5316 11.1408 32.8403C11.031 33.1489 10.8505 33.3896 10.5994 33.5622C10.3483 33.7296 10.0082 33.8133 9.57927 33.8133ZM9.57927 33.1149C9.81468 33.1149 9.99255 33.0679 10.1129 32.9737C10.2332 32.8743 10.3143 32.7383 10.3561 32.5656C10.398 32.3878 10.4189 32.1811 10.4189 31.9457V29.16C10.4189 28.9246 10.398 28.7232 10.3561 28.5558C10.3143 28.3831 10.2332 28.2523 10.1129 28.1634C9.99255 28.0692 9.81468 28.0222 9.57927 28.0222C9.34385 28.0222 9.16337 28.0692 9.03782 28.1634C8.91749 28.2523 8.83641 28.3831 8.79456 28.5558C8.7527 28.7232 8.73178 28.9246 8.73178 29.16V31.9457C8.73178 32.1811 8.7527 32.3878 8.79456 32.5656C8.83641 32.7383 8.91749 32.8743 9.03782 32.9737C9.16337 33.0679 9.34385 33.1149 9.57927 33.1149Z" fill="#F97316"/>
<path d="M13.5426 33.8133C13.0927 33.8133 12.7422 33.7192 12.491 33.5308C12.2452 33.3425 12.0725 33.0888 11.9731 32.7697C11.879 32.4506 11.8319 32.0948 11.8319 31.7025V29.4582C11.8319 29.0292 11.879 28.6552 11.9731 28.336C12.0725 28.0169 12.2452 27.771 12.491 27.5984C12.7422 27.4205 13.0927 27.3316 13.5426 27.3316C13.9402 27.3316 14.254 27.4048 14.4842 27.5513C14.7196 27.6978 14.887 27.9071 14.9864 28.1791C15.0911 28.4511 15.1434 28.7781 15.1434 29.16V29.6622H14.3037V29.2149C14.3037 28.9795 14.2907 28.7729 14.2645 28.595C14.2436 28.4119 14.1808 28.2706 14.0762 28.1712C13.9715 28.0719 13.7963 28.0222 13.5504 28.0222C13.2993 28.0222 13.1162 28.0771 13.0011 28.1869C12.886 28.2916 12.8102 28.4433 12.7735 28.6421C12.7422 28.8356 12.7265 29.0632 12.7265 29.3248V31.8437C12.7265 32.1628 12.7526 32.4165 12.8049 32.6049C12.8572 32.788 12.9436 32.9188 13.0639 32.9972C13.1842 33.0757 13.3464 33.1149 13.5504 33.1149C13.7911 33.1149 13.9637 33.0626 14.0683 32.958C14.1729 32.8481 14.2383 32.699 14.2645 32.5107C14.2907 32.3224 14.3037 32.1027 14.3037 31.8516V31.3807H15.1434V31.8516C15.1434 32.2387 15.0963 32.5813 15.0021 32.8795C14.908 33.1725 14.7458 33.4027 14.5156 33.5701C14.2854 33.7322 13.9611 33.8133 13.5426 33.8133Z" fill="#F97316"/>
<path d="M16.4511 33.7427V28.0457H15.376V27.3865H18.3815V28.0457H17.3378V33.7427H16.4511Z" fill="#F97316"/>
<path d="M20.3832 33.8133C19.9542 33.8133 19.6115 33.7296 19.3552 33.5622C19.0989 33.3948 18.9158 33.1568 18.8059 32.8481C18.696 32.5343 18.6411 32.1681 18.6411 31.7495V29.3405C18.6411 28.922 18.696 28.5636 18.8059 28.2654C18.921 27.962 19.1041 27.7318 19.3552 27.5749C19.6115 27.4127 19.9542 27.3316 20.3832 27.3316C20.8122 27.3316 21.1522 27.4127 21.4033 27.5749C21.6544 27.737 21.8349 27.9672 21.9448 28.2654C22.0598 28.5636 22.1174 28.922 22.1174 29.3405V31.7574C22.1174 32.1707 22.0598 32.5316 21.9448 32.8403C21.8349 33.1489 21.6544 33.3896 21.4033 33.5622C21.1522 33.7296 20.8122 33.8133 20.3832 33.8133ZM20.3832 33.1149C20.6186 33.1149 20.7965 33.0679 20.9168 32.9737C21.0371 32.8743 21.1182 32.7383 21.16 32.5656C21.2019 32.3878 21.2228 32.1811 21.2228 31.9457V29.16C21.2228 28.9246 21.2019 28.7232 21.16 28.5558C21.1182 28.3831 21.0371 28.2523 20.9168 28.1634C20.7965 28.0692 20.6186 28.0222 20.3832 28.0222C20.1478 28.0222 19.9673 28.0692 19.8417 28.1634C19.7214 28.2523 19.6403 28.3831 19.5985 28.5558C19.5566 28.7232 19.5357 28.9246 19.5357 29.16V31.9457C19.5357 32.1811 19.5566 32.3878 19.5985 32.5656C19.6403 32.7383 19.7214 32.8743 19.8417 32.9737C19.9673 33.0679 20.1478 33.1149 20.3832 33.1149Z" fill="#F97316"/>
<path d="M23.9032 34.8962V33.1071H24.1936C24.2825 33.0339 24.3688 32.9449 24.4525 32.8403C24.5415 32.7357 24.6225 32.5996 24.6958 32.4322C24.7743 32.2596 24.8449 32.0399 24.9077 31.7731C24.9704 31.501 25.0254 31.161 25.0724 30.753C25.1248 30.3449 25.164 29.8505 25.1902 29.2698L25.2922 27.3865H27.9523V33.1071H28.5644V34.8962H27.8817L27.8111 33.7427H24.6566L24.5859 34.8962H23.9032ZM25.0175 33.1071H27.0735V28.0457H26.0455L25.9827 29.4817C25.9618 30.0467 25.9278 30.5228 25.8807 30.9099C25.8389 31.2918 25.7865 31.6083 25.7238 31.8594C25.6662 32.1053 25.5982 32.3067 25.5197 32.4636C25.4465 32.6153 25.3654 32.7383 25.2765 32.8324C25.1928 32.9266 25.1065 33.0182 25.0175 33.1071Z" fill="#F97316"/>
<path d="M28.9956 33.7427V27.3865H31.4596V28.0457H29.8824V30.1487H31.1615V30.7765H29.8824V33.1071H31.4753V33.7427H28.9956Z" fill="#F97316"/>
<path d="M31.4771 33.7427V33.0836C31.5922 33.0888 31.6968 33.0809 31.791 33.06C31.8904 33.0391 31.9767 32.9894 32.05 32.9109C32.1284 32.8324 32.1964 32.7095 32.254 32.5421C32.3115 32.3747 32.3612 32.1471 32.4031 31.8594C32.4449 31.5717 32.4816 31.2081 32.5129 30.7686L32.7248 27.3865H35.5184V33.7427H34.6317V28.0457H33.486L33.3369 30.7686C33.3107 31.1767 33.2767 31.5455 33.2349 31.8751C33.193 32.1994 33.1302 32.4846 33.0465 32.7304C32.9681 32.9711 32.8608 33.1725 32.7248 33.3347C32.594 33.4916 32.4266 33.6041 32.2226 33.6721C32.0186 33.7401 31.7701 33.7636 31.4771 33.7427Z" fill="#F97316"/>
<path d="M35.9347 33.7427L37.2844 27.3865H38.1398L39.4973 33.7427H38.6577L38.3673 32.1419H37.0726L36.7665 33.7427H35.9347ZM37.1903 31.5063H38.2496L37.716 28.6421L37.1903 31.5063Z" fill="#F97316"/>
<path d="M39.9068 33.7427V27.3865H42.3708V28.0457H40.7936V30.1487H42.0726V30.7765H40.7936V33.1071H42.3865V33.7427H39.9068Z" fill="#F97316"/>
<path d="M42.8513 33.7427L42.969 27.3865H43.84L44.9622 32.5421L46.0922 27.3865H46.9553L47.0731 33.7427H46.359L46.2883 29.1286L45.2133 33.7427H44.7111L43.6439 29.1286L43.5732 33.7427H42.8513Z" fill="#F97316"/>
<path d="M48.9773 33.7427L50.3035 30.4155L49.0009 27.3865H49.8248L50.79 29.6308L51.6689 27.3865H52.4928L51.1588 30.4862L52.5556 33.7427H51.7317L50.6958 31.3493L49.8013 33.7427H48.9773Z" fill="#F97316"/>
<path d="M54.5443 33.8133C54.1153 33.8133 53.7726 33.7296 53.5163 33.5622C53.2599 33.3948 53.0768 33.1568 52.967 32.8481C52.8571 32.5343 52.8022 32.1681 52.8022 31.7495V29.3405C52.8022 28.922 52.8571 28.5636 52.967 28.2654C53.0821 27.962 53.2652 27.7318 53.5163 27.5749C53.7726 27.4127 54.1153 27.3316 54.5443 27.3316C54.9732 27.3316 55.3133 27.4127 55.5644 27.5749C55.8155 27.737 55.996 27.9672 56.1058 28.2654C56.2209 28.5636 56.2785 28.922 56.2785 29.3405V31.7574C56.2785 32.1707 56.2209 32.5316 56.1058 32.8403C55.996 33.1489 55.8155 33.3896 55.5644 33.5622C55.3133 33.7296 54.9732 33.8133 54.5443 33.8133ZM54.5443 33.1149C54.7797 33.1149 54.9575 33.0679 55.0779 32.9737C55.1982 32.8743 55.2793 32.7383 55.3211 32.5656C55.363 32.3878 55.3839 32.1811 55.3839 31.9457V29.16C55.3839 28.9246 55.363 28.7232 55.3211 28.5558C55.2793 28.3831 55.1982 28.2523 55.0779 28.1634C54.9575 28.0692 54.7797 28.0222 54.5443 28.0222C54.3088 28.0222 54.1284 28.0692 54.0028 28.1634C53.8825 28.2523 53.8014 28.3831 53.7595 28.5558C53.7177 28.7232 53.6968 28.9246 53.6968 29.16V31.9457C53.6968 32.1811 53.7177 32.3878 53.7595 32.5656C53.8014 32.7383 53.8825 32.8743 54.0028 32.9737C54.1284 33.0679 54.3088 33.1149 54.5443 33.1149Z" fill="#F97316"/>
<path d="M56.9146 33.7427V27.3865H58.4919C58.8737 27.3865 59.1772 27.4572 59.4021 27.5984C59.6323 27.7344 59.7997 27.9332 59.9043 28.1948C60.009 28.4564 60.0613 28.7729 60.0613 29.1443C60.0613 29.4791 60.0011 29.7694 59.8808 30.0153C59.7657 30.2612 59.5931 30.4521 59.3629 30.5882C59.1327 30.7189 58.845 30.7843 58.4997 30.7843H57.8013V33.7427H56.9146ZM57.8013 30.1487H58.2094C58.4657 30.1487 58.6671 30.12 58.8136 30.0624C58.9601 30.0049 59.0647 29.9055 59.1275 29.7642C59.1902 29.6177 59.2216 29.4137 59.2216 29.1521C59.2216 28.8487 59.1981 28.6159 59.151 28.4537C59.1092 28.2916 59.0176 28.1791 58.8764 28.1163C58.7351 28.0535 58.5154 28.0222 58.2172 28.0222H57.8013V30.1487Z" fill="#F97316"/>
<path d="M62.0738 33.8133C61.6448 33.8133 61.3022 33.7296 61.0459 33.5622C60.7895 33.3948 60.6064 33.1568 60.4965 32.8481C60.3867 32.5343 60.3318 32.1681 60.3318 31.7495V29.3405C60.3318 28.922 60.3867 28.5636 60.4965 28.2654C60.6116 27.962 60.7947 27.7318 61.0459 27.5749C61.3022 27.4127 61.6448 27.3316 62.0738 27.3316C62.5028 27.3316 62.8428 27.4127 63.094 27.5749C63.3451 27.737 63.5255 27.9672 63.6354 28.2654C63.7505 28.5636 63.808 28.922 63.808 29.3405V31.7574C63.808 32.1707 63.7505 32.5316 63.6354 32.8403C63.5255 33.1489 63.3451 33.3896 63.094 33.5622C62.8428 33.7296 62.5028 33.8133 62.0738 33.8133ZM62.0738 33.1149C62.3092 33.1149 62.4871 33.0679 62.6074 32.9737C62.7278 32.8743 62.8088 32.7383 62.8507 32.5656C62.8925 32.3878 62.9135 32.1811 62.9135 31.9457V29.16C62.9135 28.9246 62.8925 28.7232 62.8507 28.5558C62.8088 28.3831 62.7278 28.2523 62.6074 28.1634C62.4871 28.0692 62.3092 28.0222 62.0738 28.0222C61.8384 28.0222 61.6579 28.0692 61.5324 28.1634C61.412 28.2523 61.331 28.3831 61.2891 28.5558C61.2473 28.7232 61.2263 28.9246 61.2263 29.16V31.9457C61.2263 32.1811 61.2473 32.3878 61.2891 32.5656C61.331 32.7383 61.412 32.8743 61.5324 32.9737C61.6579 33.0679 61.8384 33.1149 62.0738 33.1149Z" fill="#F97316"/>
<path d="M64.4441 33.7427V27.3865H65.3309V33.0992H66.4766V27.3865H67.3633V33.0992H68.454V27.3865H69.3408V33.7427H64.4441Z" fill="#F97316"/>
<path d="M71.7184 33.8133C71.2895 33.8133 70.9468 33.7296 70.6905 33.5622C70.4341 33.3948 70.251 33.1568 70.1412 32.8481C70.0313 32.5343 69.9764 32.1681 69.9764 31.7495V29.3405C69.9764 28.922 70.0313 28.5636 70.1412 28.2654C70.2563 27.962 70.4394 27.7318 70.6905 27.5749C70.9468 27.4127 71.2895 27.3316 71.7184 27.3316C72.1474 27.3316 72.4875 27.4127 72.7386 27.5749C72.9897 27.737 73.1702 27.9672 73.28 28.2654C73.3951 28.5636 73.4527 28.922 73.4527 29.3405V31.7574C73.4527 32.1707 73.3951 32.5316 73.28 32.8403C73.1702 33.1489 72.9897 33.3896 72.7386 33.5622C72.4875 33.7296 72.1474 33.8133 71.7184 33.8133ZM71.7184 33.1149C71.9539 33.1149 72.1317 33.0679 72.252 32.9737C72.3724 32.8743 72.4535 32.7383 72.4953 32.5656C72.5372 32.3878 72.5581 32.1811 72.5581 31.9457V29.16C72.5581 28.9246 72.5372 28.7232 72.4953 28.5558C72.4535 28.3831 72.3724 28.2523 72.252 28.1634C72.1317 28.0692 71.9539 28.0222 71.7184 28.0222C71.483 28.0222 71.3025 28.0692 71.177 28.1634C71.0567 28.2523 70.9756 28.3831 70.9337 28.5558C70.8919 28.7232 70.871 28.9246 70.871 29.16V31.9457C70.871 32.1811 70.8919 32.3878 70.9337 32.5656C70.9756 32.7383 71.0567 32.8743 71.177 32.9737C71.3025 33.0679 71.483 33.1149 71.7184 33.1149Z" fill="#F97316"/>
</svg>
